<svg width="150" height="150" viewBox="0 0 150 150" fill="none" xmlns="http://www.w3.org/2000/svg">
<path d="M65.5 3C31 3 3 31 3 65.5C3 100 31 128 65.5 128C100 128 128 100 128 65.5C128 31 100 3 65.5 3ZM65.5 21.75C75.875 21.75 84.25 30.125 84.25 40.5C84.25 50.875 75.875 59.25 65.5 59.25C55.125 59.25 46.75 50.875 46.75 40.5C46.75 30.125 55.125 21.75 65.5 21.75ZM65.5 110.5C49.875 110.5 36.0625 102.5 28 90.375C28.1875 77.9375 53 71.125 65.5 71.125C77.9375 71.125 102.813 77.9375 103 90.375C94.9375 102.5 81.125 110.5 65.5 110.5Z" fill="white"/>
</svg>
