<svg width="414" height="768" viewBox="0 0 414 768" fill="none" xmlns="http://www.w3.org/2000/svg">
<path d="M10.7587 575.463C-79.4482 523.915 201.682 355.65 184.556 245.3C168.162 139.66 37.8193 71.2581 103.399 -32.5304C205.272 -193.757 614.492 39.6844 665.518 192.13C722.824 363.34 161.419 661.558 10.7587 575.463Z" fill="#FFA319" fill-opacity="0.6"/>
<path d="M625.88 377.614C519.917 395.311 471.057 310.7 381.408 251.523C295.587 194.872 198.32 185.417 177.682 84.7045C145.623 -71.7446 408.697 -142.634 553.878 -75.9771C716.93 -1.11516 802.856 348.056 625.88 377.614Z" fill="#E75F12" fill-opacity="0.77"/>
<path d="M692.88 372.614C586.917 390.311 538.057 305.7 448.408 246.523C362.587 189.872 265.32 180.417 244.682 79.7045C212.623 -76.7446 475.697 -147.634 620.878 -80.9771C783.93 -6.11516 869.856 343.056 692.88 372.614Z" stroke="#ACFF86" stroke-opacity="0.6"/>
</svg>
